<svg width="28" height="28" viewBox="0 0 28 28" fill="none" xmlns="http://www.w3.org/2000/svg">
<path d="M14 3.5C11.4365 3.5 9.33333 5.60316 9.33333 8.16667C9.33333 10.7302 11.4365 12.8333 14 12.8333C16.5635 12.8333 18.6667 10.7302 18.6667 8.16667C18.6667 5.60316 16.5635 3.5 14 3.5ZM14 5.83333C15.3025 5.83333 16.3333 6.86418 16.3333 8.16667C16.3333 9.46915 15.3025 10.5 14 10.5C12.6975 10.5 11.6667 9.46915 11.6667 8.16667C11.6667 6.86418 12.6975 5.83333 14 5.83333ZM14 16.3333C11.9642 16.3333 9.55169 16.8114 7.52409 17.6117C6.51029 18.0118 5.59381 18.4871 4.86035 19.0973C4.12689 19.7076 3.5 20.5326 3.5 21.5833V24.5H24.5V23.3333V21.5833C24.5 20.5326 23.8731 19.7076 23.1396 19.0973C22.4062 18.4871 21.4897 18.0118 20.4759 17.6117C18.4483 16.8114 16.0358 16.3333 14 16.3333ZM14 18.6667C15.6497 18.6667 17.9037 19.103 19.6214 19.7809C20.4803 20.1199 21.2065 20.524 21.6471 20.8906C22.0878 21.2573 22.1667 21.5071 22.1667 21.5833V22.1667H5.83333V21.5833C5.83333 21.5071 5.91218 21.2573 6.35286 20.8906C6.79354 20.524 7.51974 20.1199 8.37858 19.7809C10.0963 19.103 12.3503 18.6667 14 18.6667Z" fill="#1D1D1D"/>
</svg>
