<svg width="28" height="28" viewBox="0 0 28 28" fill="none" xmlns="http://www.w3.org/2000/svg">
<path d="M11.6667 2.33325C10.3798 2.33325 9.33333 3.37975 9.33333 4.66659V6.99992H3.5V22.1666C3.5 23.4534 4.5465 24.4999 5.83333 24.4999H22.1667C23.4535 24.4999 24.5 23.4534 24.5 22.1666V6.99992H18.6667V4.66659C18.6667 3.37975 17.6202 2.33325 16.3333 2.33325H11.6667ZM11.6667 4.66659H16.3333V6.99992H11.6667V4.66659ZM5.83333 9.33325H22.1667L22.1689 22.1666H5.83333V9.33325ZM10.5 11.6666C9.856 11.6666 9.33333 12.1893 9.33333 12.8333C9.33333 13.4773 9.856 13.9999 10.5 13.9999C11.144 13.9999 11.6667 13.4773 11.6667 12.8333C11.6667 12.1893 11.144 11.6666 10.5 11.6666ZM17.5 11.6666C16.856 11.6666 16.3333 12.1893 16.3333 12.8333C16.3333 13.4773 16.856 13.9999 17.5 13.9999C18.144 13.9999 18.6667 13.4773 18.6667 12.8333C18.6667 12.1893 18.144 11.6666 17.5 11.6666Z" fill="#1D1D1D"/>
</svg>
